<svg width="17" height="17" viewBox="0 0 17 17" fill="none" xmlns="http://www.w3.org/2000/svg">
<path d="M4.40311 8.50994L4.32732 8.44471C4.20567 8.58605 4.14208 8.76823 4.14935 8.95457C4.15663 9.14089 4.2342 9.31753 4.36647 9.44896C4.36649 9.44897 4.3665 9.44899 4.36652 9.44901L8.01283 13.0911L8.01268 13.0912L8.01763 13.0956C8.09148 13.1602 8.1777 13.2092 8.27105 13.2395L8.27102 13.2396L8.27494 13.2407L8.34464 13.2602L8.34459 13.2604L8.35077 13.2618C8.39947 13.2722 8.44913 13.2775 8.49893 13.2776L8.49893 13.2776L8.50248 13.2775L8.55348 13.2758L8.55349 13.2761L8.5615 13.2752L8.621 13.2684L8.6211 13.2693L8.6339 13.2661L8.7359 13.2406L8.74322 13.2387L8.75018 13.2358L8.82753 13.2035L8.82787 13.2044L8.83939 13.1976L8.86999 13.1798L8.87003 13.1799L8.87358 13.1776L8.95178 13.1274L8.95864 13.123L8.96469 13.1176L9.02419 13.064L9.02429 13.0641L9.02807 13.0604L12.6346 9.44786L12.6348 9.44807L12.6398 9.44229L12.701 9.37089L12.7012 9.37106L12.7054 9.3653C12.8106 9.22316 12.8613 9.04795 12.8481 8.8716C12.8349 8.69526 12.7588 8.52952 12.6336 8.40459L12.6338 8.40438L12.6281 8.39944L12.5567 8.33824L12.5568 8.33804L12.551 8.33373C12.4088 8.22865 12.2335 8.17819 12.0571 8.19155C11.8808 8.2049 11.7151 8.28119 11.5903 8.40649L9.24007 10.7599L9.2409 2.33752H9.24113L9.24066 2.33067L9.23471 2.24397L9.23494 2.24395L9.23402 2.23721C9.20978 2.06065 9.12243 1.89884 8.98812 1.7817C8.8538 1.66456 8.68162 1.60002 8.5034 1.60001H8.50255C8.30695 1.60001 8.11936 1.67771 7.98106 1.81602C7.84275 1.95433 7.76505 2.14192 7.76505 2.33751V10.7571L5.40864 8.40543L5.40881 8.40526L5.40359 8.40073L5.33219 8.33868L5.33238 8.33846L5.32625 8.33391C5.17659 8.22266 4.99033 8.17224 4.80499 8.1928C4.61964 8.21336 4.44897 8.30337 4.32732 8.44471L4.40311 8.50994ZM4.40311 8.50994C4.50826 8.38776 4.6558 8.30996 4.81601 8.29219C4.97623 8.27442 5.13723 8.318 5.2666 8.41416M4.40311 8.50994C4.29796 8.63212 4.24299 8.78959 4.24928 8.95067C4.25557 9.11174 4.32264 9.26445 4.437 9.37806L5.2666 8.41416M5.2666 8.41416L5.338 8.47621L5.2666 8.41416ZM12.9584 13.9233H12.9582H4.0375V13.9231L4.03065 13.9235L3.94395 13.9295L3.94394 13.9293L3.93717 13.9302C3.75205 13.9557 3.58351 14.0505 3.46559 14.1954C3.34767 14.3404 3.28917 14.5247 3.30191 14.7111C3.31464 14.8975 3.39767 15.0721 3.53421 15.1997C3.67074 15.3273 3.85061 15.3983 4.03747 15.3983H4.0375H12.9582V15.3986L12.9652 15.3981L13.051 15.3921L13.051 15.3924L13.0577 15.3914C13.2428 15.366 13.4112 15.2713 13.5292 15.1264C13.6471 14.9816 13.7056 14.7974 13.693 14.611C13.6804 14.4247 13.5976 14.2501 13.4612 14.1224C13.3249 13.9948 13.1452 13.9236 12.9584 13.9233Z" fill="#FFF1E6" stroke="white" stroke-width="0.2"/>
</svg>
