<svg width="30" height="30" viewBox="0 0 30 30" fill="none" xmlns="http://www.w3.org/2000/svg">
<path fill-rule="evenodd" clip-rule="evenodd" d="M15 0C6.71875 0 0 6.71875 0 15C0 23.2812 6.71875 30 15 30C23.265 30 30 23.2812 30 15C30 6.71875 23.265 0 15 0ZM24.9075 6.91375C26.7543 9.16292 27.7763 11.9761 27.8037 14.8863C27.3813 14.805 23.1513 13.9425 18.8888 14.48C18.79 14.2675 18.7087 14.04 18.6112 13.8125C18.3461 13.1868 18.0644 12.5682 17.7663 11.9575C22.4837 10.0375 24.6313 7.2725 24.9075 6.91375ZM15 2.21375C18.2537 2.21375 21.2313 3.4325 23.4925 5.43375C23.265 5.75875 21.3288 8.34625 16.7738 10.0538C14.6737 6.19875 12.3488 3.04125 11.99 2.55375C12.9767 2.32336 13.9868 2.20884 15 2.2125V2.21375ZM9.55 3.41625C9.89125 3.8725 12.1687 7.045 14.3 10.8187C8.3125 12.4137 3.025 12.3812 2.45625 12.3812C3.28625 8.41125 5.97125 5.10875 9.55 3.41625ZM2.18 15.0162V14.6263C2.73375 14.6425 8.9475 14.7238 15.3425 12.8038C15.7163 13.52 16.0575 14.2513 16.3825 14.9838C16.22 15.0325 16.0413 15.0813 15.8787 15.13C9.27375 17.2612 5.75875 23.085 5.46625 23.5737C3.35051 21.2256 2.17975 18.1769 2.18 15.0162ZM15 27.82C12.1525 27.8245 9.3858 26.8738 7.1425 25.12C7.37 24.6475 9.9725 19.6362 17.1963 17.115C17.2288 17.0988 17.2463 17.0988 17.2775 17.0825C19.0837 21.7513 19.815 25.6725 20.0113 26.795C18.465 27.4625 16.7738 27.82 15 27.82ZM22.1425 25.6238C22.0125 24.8425 21.3288 21.1012 19.6525 16.4963C23.6712 15.8625 27.185 16.9038 27.625 17.05C27.0713 20.6125 25.0213 23.6875 22.1425 25.6238Z" fill="#E6AA68"/>
</svg>
